<?xml version="1.0" encoding="utf-8"?>
<svg viewBox="17.979 89.276 317.729 394.605" width="317.729px" height="394.605px" xmlns="http://www.w3.org/2000/svg" xmlns:bx="https://boxy-svg.com"><defs><bx:export><bx:file format="svg" path="Bez nazwy.svg"/></bx:export></defs><path style="fill:#FFFFFF;" d="M 302.612 152.61 L 281.408 152.61 L 281.408 167.931 C 281.408 173.943 276.56 178.856 270.483 178.856 C 264.471 178.856 259.558 174.008 259.558 167.931 L 259.558 152.61 L 237.384 152.61 L 237.384 167.931 C 237.384 173.943 232.536 178.856 226.459 178.856 C 220.447 178.856 215.534 174.008 215.534 167.931 L 215.534 152.61 L 138.928 152.61 L 138.928 167.931 C 138.928 173.943 134.08 178.856 128.003 178.856 C 121.926 178.856 117.078 174.008 117.078 167.931 L 117.078 152.61 L 94.904 152.61 L 94.904 167.931 C 94.904 173.943 90.056 178.856 83.979 178.856 C 77.967 178.856 73.054 174.008 73.054 167.931 L 73.054 152.61 L 51.783 152.61 C 45.771 152.61 40.858 157.458 40.858 163.535 L 40.858 449.725 C 40.858 455.737 45.706 460.65 51.783 460.65 L 302.482 460.65 C 308.494 460.65 313.407 455.802 313.407 449.725 L 313.407 163.535 C 313.472 157.523 308.624 152.61 302.612 152.61 Z"/><rect x="62.838" y="190.105" style="fill:#FFC10D;" width="228.784" height="248.501"/><g transform="matrix(1, 0, 0, 1, -19.165903, 89.838455)"><path style="fill:#194F82;" d="M129.713,235.766c-7.499,0-13.576-6.4-13.576-14.287c0-6.012-4.655-10.925-10.408-10.925&#10;&#9;&#9;c-5.689,0-10.408,4.848-10.408,10.925c0,16.097,10.149,29.737,24.048,34.392v6.012c0,6.012,4.655,10.925,10.408,10.925&#10;&#9;&#9;c5.689,0,10.408-4.848,10.408-10.925v-6.077c13.899-4.655,24.048-18.295,24.048-34.392c0-19.846-15.451-36.073-34.457-36.073&#10;&#9;&#9;c0.259,0,0,0-0.065,0c-6.853-0.711-13.576-6.723-13.576-14.158c0-7.887,6.077-14.287,13.576-14.287&#10;&#9;&#9;c7.499,0,13.576,6.4,13.576,14.287c0,6.012,4.655,10.925,10.408,10.925c5.689,0,10.408-4.848,10.408-10.925&#10;&#9;&#9;c0-16.097-10.149-29.737-24.048-34.392v-6.077c0-6.012-4.655-10.925-10.408-10.925c-5.689,0-10.408,4.848-10.408,10.925v6.077&#10;&#9;&#9;c-13.899,4.655-24.048,18.295-24.048,34.392c0,19.846,16.743,36.008,35.749,36.008c-0.259,0,0,0,0.065,0&#10;&#9;&#9;c6.853,0.711,12.283,6.788,12.283,14.222C143.418,229.301,137.341,235.766,129.713,235.766z"/><path style="fill:#194F82;" d="M321.778,40.986h-21.204V10.925C300.574,4.913,295.725,0,289.648,0&#10;&#9;&#9;c-6.012,0-10.925,4.848-10.925,10.925v30.061h-22.174V10.925C256.549,4.913,251.701,0,245.624,0&#10;&#9;&#9;c-6.012,0-10.925,4.848-10.925,10.925v30.061h-76.606V10.925C158.028,4.913,153.18,0,147.103,0&#10;&#9;&#9;c-6.077,0-10.925,4.848-10.925,10.925v30.061h-22.174V10.925C114.004,4.913,109.155,0,103.079,0&#10;&#9;&#9;c-6.077,0-10.925,4.848-10.925,10.925v30.061H70.949c-18.036,0-32.711,14.675-32.711,32.711v286.19&#10;&#9;&#9;c0,18.036,14.675,32.711,32.711,32.711h250.699c18.036,0,32.711-14.675,32.711-32.711V73.697&#10;&#9;&#9;C354.424,55.725,339.749,40.986,321.778,40.986z M332.638,359.887c0,6.012-4.848,10.925-10.925,10.925H71.079&#10;&#9;&#9;c-6.012,0-10.925-4.848-10.925-10.925V73.697c0-6.012,4.848-10.925,10.925-10.925h21.204v15.321&#10;&#9;&#9;c0,6.012,4.848,10.925,10.925,10.925c6.012,0,10.925-4.848,10.925-10.925V62.772h22.174v15.321c0,6.012,4.848,10.925,10.925,10.925&#10;&#9;&#9;s10.925-4.848,10.925-10.925V62.772h76.735v15.321c0,6.012,4.848,10.925,10.925,10.925c6.012,0,10.925-4.848,10.925-10.925V62.772&#10;&#9;&#9;h22.174v15.321c0,6.012,4.848,10.925,10.925,10.925c6.012,0,10.925-4.848,10.925-10.925V62.772h21.204&#10;&#9;&#9;c6.012,0,10.925,4.848,10.925,10.925v286.19H332.638z"/><path style="fill:#194F82;" d="M287.127,138.279h-78.481c-5.689,0-10.408,4.848-10.408,10.925c0,6.077,4.655,10.925,10.408,10.925&#10;&#9;&#9;h78.416c5.689,0,10.408-4.848,10.408-10.925C297.471,143.127,292.881,138.279,287.127,138.279z"/><path style="fill:#194F82;" d="M287.127,194.909h-78.481c-5.689,0-10.408,4.848-10.408,10.925s4.655,10.925,10.408,10.925h78.416&#10;&#9;&#9;c5.689,0,10.408-4.848,10.408-10.925C297.471,199.887,292.881,194.909,287.127,194.909z"/><path style="fill:#194F82;" d="M287.127,251.669h-78.481c-5.689,0-10.408,4.848-10.408,10.925c0,6.012,4.655,10.925,10.408,10.925&#10;&#9;&#9;h78.416c5.689,0,10.408-4.848,10.408-10.925S292.881,251.669,287.127,251.669z"/><path style="fill:#194F82;" d="M287.127,308.299H105.729c-5.689,0-10.408,4.848-10.408,10.925c0,6.012,4.655,10.925,10.408,10.925&#10;&#9;&#9;h181.463c5.689,0,10.408-4.848,10.408-10.925C297.471,313.147,292.881,308.299,287.127,308.299z"/></g></svg>